<mxfile host="app.diagrams.net" modified="2023-07-27T09:51:32.262Z" agent="Mozilla/5.0 (X11; Linux x86_64) AppleWebKit/537.36 (KHTML, like Gecko) Chrome/114.0.0.0 Safari/537.36" etag="vsIjtzV3wfUQdae6RyNs" version="21.6.5" type="github">
  <diagram name="Page-1" id="hlpe3HDvRwnY9zBwgGZH">
    <mxGraphModel dx="1937" dy="968" grid="1" gridSize="10" guides="1" tooltips="1" connect="1" arrows="1" fold="1" page="1" pageScale="1" pageWidth="827" pageHeight="1169" math="0" shadow="0">
      <root>
        <mxCell id="0" />
        <mxCell id="1" parent="0" />
        <mxCell id="d_jsHuiSVQQN2BJJEdMS-1" style="edgeStyle=orthogonalEdgeStyle;rounded=0;orthogonalLoop=1;jettySize=auto;html=1;" parent="1" source="d_jsHuiSVQQN2BJJEdMS-4" target="d_jsHuiSVQQN2BJJEdMS-16" edge="1">
          <mxGeometry relative="1" as="geometry" />
        </mxCell>
        <mxCell id="d_jsHuiSVQQN2BJJEdMS-2" style="edgeStyle=orthogonalEdgeStyle;rounded=0;orthogonalLoop=1;jettySize=auto;html=1;" parent="1" source="d_jsHuiSVQQN2BJJEdMS-4" target="d_jsHuiSVQQN2BJJEdMS-15" edge="1">
          <mxGeometry relative="1" as="geometry" />
        </mxCell>
        <mxCell id="d_jsHuiSVQQN2BJJEdMS-3" style="edgeStyle=orthogonalEdgeStyle;rounded=0;orthogonalLoop=1;jettySize=auto;html=1;" parent="1" source="d_jsHuiSVQQN2BJJEdMS-4" target="d_jsHuiSVQQN2BJJEdMS-17" edge="1">
          <mxGeometry relative="1" as="geometry" />
        </mxCell>
        <mxCell id="d_jsHuiSVQQN2BJJEdMS-4" value="Subscription" style="image;aspect=fixed;html=1;points=[];align=center;fontSize=12;image=img/lib/azure2/general/Subscriptions.svg;" parent="1" vertex="1">
          <mxGeometry x="332" y="622" width="44" height="71" as="geometry" />
        </mxCell>
        <mxCell id="d_jsHuiSVQQN2BJJEdMS-5" value="Sales" style="image;aspect=fixed;html=1;points=[];align=center;fontSize=12;image=img/lib/azure2/general/Resource_Groups.svg;" parent="1" vertex="1">
          <mxGeometry x="820" y="700" width="68" height="64" as="geometry" />
        </mxCell>
        <mxCell id="d_jsHuiSVQQN2BJJEdMS-6" style="edgeStyle=orthogonalEdgeStyle;rounded=0;orthogonalLoop=1;jettySize=auto;html=1;" parent="1" source="d_jsHuiSVQQN2BJJEdMS-8" target="d_jsHuiSVQQN2BJJEdMS-19" edge="1">
          <mxGeometry relative="1" as="geometry" />
        </mxCell>
        <mxCell id="d_jsHuiSVQQN2BJJEdMS-7" style="edgeStyle=orthogonalEdgeStyle;rounded=0;orthogonalLoop=1;jettySize=auto;html=1;" parent="1" source="d_jsHuiSVQQN2BJJEdMS-8" target="d_jsHuiSVQQN2BJJEdMS-21" edge="1">
          <mxGeometry relative="1" as="geometry" />
        </mxCell>
        <mxCell id="d_jsHuiSVQQN2BJJEdMS-8" value="IT Management Group&lt;br&gt;" style="image;aspect=fixed;html=1;points=[];align=center;fontSize=12;image=img/lib/azure2/general/Management_Groups.svg;" parent="1" vertex="1">
          <mxGeometry x="507.94000000000005" y="430" width="64.97" height="63" as="geometry" />
        </mxCell>
        <mxCell id="d_jsHuiSVQQN2BJJEdMS-9" style="edgeStyle=orthogonalEdgeStyle;rounded=0;orthogonalLoop=1;jettySize=auto;html=1;" parent="1" source="d_jsHuiSVQQN2BJJEdMS-12" target="d_jsHuiSVQQN2BJJEdMS-14" edge="1">
          <mxGeometry relative="1" as="geometry" />
        </mxCell>
        <mxCell id="d_jsHuiSVQQN2BJJEdMS-10" style="edgeStyle=orthogonalEdgeStyle;rounded=0;orthogonalLoop=1;jettySize=auto;html=1;" parent="1" source="d_jsHuiSVQQN2BJJEdMS-12" target="d_jsHuiSVQQN2BJJEdMS-13" edge="1">
          <mxGeometry relative="1" as="geometry" />
        </mxCell>
        <mxCell id="d_jsHuiSVQQN2BJJEdMS-11" style="edgeStyle=orthogonalEdgeStyle;rounded=0;orthogonalLoop=1;jettySize=auto;html=1;" parent="1" source="d_jsHuiSVQQN2BJJEdMS-12" target="d_jsHuiSVQQN2BJJEdMS-5" edge="1">
          <mxGeometry relative="1" as="geometry" />
        </mxCell>
        <mxCell id="d_jsHuiSVQQN2BJJEdMS-12" value="Subscription" style="image;aspect=fixed;html=1;points=[];align=center;fontSize=12;image=img/lib/azure2/general/Subscriptions.svg;" parent="1" vertex="1">
          <mxGeometry x="714" y="622" width="44" height="71" as="geometry" />
        </mxCell>
        <mxCell id="d_jsHuiSVQQN2BJJEdMS-13" value="&lt;span style=&quot;color: rgb(34, 34, 34); font-family: &amp;quot;Segoe UI&amp;quot;, serif; font-size: 16px; font-style: normal; font-variant-ligatures: normal; font-variant-caps: normal; font-weight: 400; letter-spacing: normal; orphans: 2; text-align: right; text-indent: 0px; text-transform: none; widows: 2; word-spacing: 0px; -webkit-text-stroke-width: 0px; background-color: rgb(255, 255, 255); text-decoration-thickness: initial; text-decoration-style: initial; text-decoration-color: initial; float: none; display: inline !important;&quot;&gt;Marketing&lt;/span&gt;" style="image;aspect=fixed;html=1;points=[];align=center;fontSize=12;image=img/lib/azure2/general/Resource_Groups.svg;" parent="1" vertex="1">
          <mxGeometry x="703" y="761" width="68" height="64" as="geometry" />
        </mxCell>
        <mxCell id="d_jsHuiSVQQN2BJJEdMS-14" value="Product Development" style="image;aspect=fixed;html=1;points=[];align=center;fontSize=12;image=img/lib/azure2/general/Resource_Groups.svg;" parent="1" vertex="1">
          <mxGeometry x="574.97" y="843" width="68" height="64" as="geometry" />
        </mxCell>
        <mxCell id="d_jsHuiSVQQN2BJJEdMS-15" value="Sales&lt;br&gt;" style="image;aspect=fixed;html=1;points=[];align=center;fontSize=12;image=img/lib/azure2/general/Resource_Groups.svg;" parent="1" vertex="1">
          <mxGeometry x="414" y="746" width="68" height="64" as="geometry" />
        </mxCell>
        <mxCell id="d_jsHuiSVQQN2BJJEdMS-16" value="&lt;p style=&quot;margin-bottom: 0in; direction: rtl; line-height: 1px; text-align: right; background-image: initial; background-position: initial; background-size: initial; background-repeat: initial; background-attachment: initial; background-origin: initial; background-clip: initial; font-size: medium; margin-top: 0.19in;&quot; align=&quot;left&quot;&gt;&lt;font color=&quot;#222222&quot;&gt;&lt;font face=&quot;Segoe UI, serif&quot;&gt;&lt;font style=&quot;font-size: 12pt;&quot;&gt;Marketing&lt;/font&gt;&lt;/font&gt;&lt;/font&gt;&lt;/p&gt;" style="image;aspect=fixed;html=1;points=[];align=center;fontSize=12;image=img/lib/azure2/general/Resource_Groups.svg;" parent="1" vertex="1">
          <mxGeometry x="280" y="762.53" width="68" height="64" as="geometry" />
        </mxCell>
        <mxCell id="d_jsHuiSVQQN2BJJEdMS-17" value="&lt;p style=&quot;margin-bottom: 0in; direction: rtl; line-height: 1px; text-align: right; background-image: initial; background-position: initial; background-size: initial; background-repeat: initial; background-attachment: initial; background-origin: initial; background-clip: initial; font-size: medium; margin-top: 0.19in;&quot; align=&quot;left&quot;&gt;&lt;font color=&quot;#222222&quot;&gt;&lt;font face=&quot;Segoe UI, serif&quot;&gt;&lt;font style=&quot;font-size: 12pt;&quot;&gt;Product Development&lt;/font&gt;&lt;/font&gt;&lt;/font&gt;&lt;/p&gt;" style="image;aspect=fixed;html=1;points=[];align=center;fontSize=12;image=img/lib/azure2/general/Resource_Groups.svg;" parent="1" vertex="1">
          <mxGeometry x="140" y="783.07" width="68" height="64" as="geometry" />
        </mxCell>
        <mxCell id="d_jsHuiSVQQN2BJJEdMS-18" value="" style="edgeStyle=orthogonalEdgeStyle;rounded=0;orthogonalLoop=1;jettySize=auto;html=1;" parent="1" source="d_jsHuiSVQQN2BJJEdMS-19" target="d_jsHuiSVQQN2BJJEdMS-4" edge="1">
          <mxGeometry relative="1" as="geometry" />
        </mxCell>
        <mxCell id="d_jsHuiSVQQN2BJJEdMS-19" value="Sporting Goods&lt;br&gt;" style="image;aspect=fixed;html=1;points=[];align=center;fontSize=12;image=img/lib/azure2/general/Management_Groups.svg;" parent="1" vertex="1">
          <mxGeometry x="320" y="520" width="66" height="64" as="geometry" />
        </mxCell>
        <mxCell id="d_jsHuiSVQQN2BJJEdMS-20" value="" style="edgeStyle=orthogonalEdgeStyle;rounded=0;orthogonalLoop=1;jettySize=auto;html=1;" parent="1" source="d_jsHuiSVQQN2BJJEdMS-21" target="d_jsHuiSVQQN2BJJEdMS-12" edge="1">
          <mxGeometry relative="1" as="geometry" />
        </mxCell>
        <mxCell id="d_jsHuiSVQQN2BJJEdMS-21" value="Apparel&lt;br&gt;" style="image;aspect=fixed;html=1;points=[];align=center;fontSize=12;image=img/lib/azure2/general/Management_Groups.svg;" parent="1" vertex="1">
          <mxGeometry x="702" y="520" width="66" height="64" as="geometry" />
        </mxCell>
        <mxCell id="d_jsHuiSVQQN2BJJEdMS-26" value="" style="edgeStyle=orthogonalEdgeStyle;rounded=0;orthogonalLoop=1;jettySize=auto;html=1;" parent="1" source="d_jsHuiSVQQN2BJJEdMS-22" target="d_jsHuiSVQQN2BJJEdMS-8" edge="1">
          <mxGeometry relative="1" as="geometry" />
        </mxCell>
        <mxCell id="d_jsHuiSVQQN2BJJEdMS-22" value="Root Management Group" style="image;aspect=fixed;html=1;points=[];align=center;fontSize=12;image=img/lib/azure2/general/Management_Groups.svg;" parent="1" vertex="1">
          <mxGeometry x="508.47" y="260" width="64.97" height="63" as="geometry" />
        </mxCell>
        <mxCell id="d_jsHuiSVQQN2BJJEdMS-25" value="" style="edgeStyle=orthogonalEdgeStyle;rounded=0;orthogonalLoop=1;jettySize=auto;html=1;" parent="1" source="d_jsHuiSVQQN2BJJEdMS-23" target="d_jsHuiSVQQN2BJJEdMS-22" edge="1">
          <mxGeometry relative="1" as="geometry" />
        </mxCell>
        <mxCell id="d_jsHuiSVQQN2BJJEdMS-23" value="Tailwind Traders -Tanent&lt;br&gt;" style="image;aspect=fixed;html=1;points=[];align=center;fontSize=12;image=img/lib/azure2/general/Management_Groups.svg;" parent="1" vertex="1">
          <mxGeometry x="506.94000000000005" y="90" width="68.03" height="65.97" as="geometry" />
        </mxCell>
        <mxCell id="d_jsHuiSVQQN2BJJEdMS-29" value="" style="edgeStyle=orthogonalEdgeStyle;rounded=0;orthogonalLoop=1;jettySize=auto;html=1;" parent="1" target="d_jsHuiSVQQN2BJJEdMS-8" edge="1">
          <mxGeometry relative="1" as="geometry">
            <mxPoint x="789.9999999999995" y="441.5" as="targetPoint" />
            <mxPoint x="980" y="461.4999999999999" as="sourcePoint" />
          </mxGeometry>
        </mxCell>
        <mxCell id="d_jsHuiSVQQN2BJJEdMS-34" value="" style="edgeStyle=orthogonalEdgeStyle;rounded=0;orthogonalLoop=1;jettySize=auto;html=1;" parent="1" target="d_jsHuiSVQQN2BJJEdMS-30" edge="1">
          <mxGeometry relative="1" as="geometry">
            <mxPoint x="1012.4705882352944" y="492.9999999999999" as="sourcePoint" />
          </mxGeometry>
        </mxCell>
        <mxCell id="d_jsHuiSVQQN2BJJEdMS-38" value="" style="edgeStyle=orthogonalEdgeStyle;rounded=0;orthogonalLoop=1;jettySize=auto;html=1;" parent="1" source="d_jsHuiSVQQN2BJJEdMS-30" target="d_jsHuiSVQQN2BJJEdMS-35" edge="1">
          <mxGeometry relative="1" as="geometry" />
        </mxCell>
        <mxCell id="HOAgcyTk43EPcxEQj3Mo-1" value="" style="edgeStyle=orthogonalEdgeStyle;rounded=0;orthogonalLoop=1;jettySize=auto;html=1;" parent="1" source="d_jsHuiSVQQN2BJJEdMS-30" target="d_jsHuiSVQQN2BJJEdMS-35" edge="1">
          <mxGeometry relative="1" as="geometry" />
        </mxCell>
        <mxCell id="d_jsHuiSVQQN2BJJEdMS-30" value="Subscription Customer Feedback&lt;br&gt;" style="image;aspect=fixed;html=1;points=[];align=center;fontSize=12;image=img/lib/azure2/general/Subscriptions.svg;" parent="1" vertex="1">
          <mxGeometry x="990.49" y="442" width="44" height="71" as="geometry" />
        </mxCell>
        <mxCell id="d_jsHuiSVQQN2BJJEdMS-47" value="" style="edgeStyle=orthogonalEdgeStyle;rounded=0;orthogonalLoop=1;jettySize=auto;html=1;" parent="1" source="d_jsHuiSVQQN2BJJEdMS-35" target="d_jsHuiSVQQN2BJJEdMS-42" edge="1">
          <mxGeometry relative="1" as="geometry" />
        </mxCell>
        <mxCell id="5Q3nX3RN6myIEDCxwFRo-20" style="edgeStyle=orthogonalEdgeStyle;rounded=0;orthogonalLoop=1;jettySize=auto;html=1;" edge="1" parent="1" source="d_jsHuiSVQQN2BJJEdMS-35" target="d_jsHuiSVQQN2BJJEdMS-54">
          <mxGeometry relative="1" as="geometry" />
        </mxCell>
        <mxCell id="5Q3nX3RN6myIEDCxwFRo-21" style="edgeStyle=orthogonalEdgeStyle;rounded=0;orthogonalLoop=1;jettySize=auto;html=1;" edge="1" parent="1" source="d_jsHuiSVQQN2BJJEdMS-35" target="d_jsHuiSVQQN2BJJEdMS-44">
          <mxGeometry relative="1" as="geometry" />
        </mxCell>
        <mxCell id="d_jsHuiSVQQN2BJJEdMS-35" value="VM&#39;s" style="image;aspect=fixed;html=1;points=[];align=center;fontSize=12;image=img/lib/azure2/general/Resource_Groups.svg;" parent="1" vertex="1">
          <mxGeometry x="1022.19" y="703" width="74.38" height="70" as="geometry" />
        </mxCell>
        <mxCell id="d_jsHuiSVQQN2BJJEdMS-42" value="Cheap Virtual Machine" style="image;aspect=fixed;html=1;points=[];align=center;fontSize=12;image=img/lib/azure2/compute/Virtual_Machine.svg;" parent="1" vertex="1">
          <mxGeometry x="1010" y="837" width="69" height="64" as="geometry" />
        </mxCell>
        <mxCell id="d_jsHuiSVQQN2BJJEdMS-44" value="Scale VM&#39;s" style="image;aspect=fixed;html=1;points=[];align=center;fontSize=12;image=img/lib/azure2/compute/VM_Scale_Sets.svg;" parent="1" vertex="1">
          <mxGeometry x="1150" y="835" width="68" height="68" as="geometry" />
        </mxCell>
        <mxCell id="5Q3nX3RN6myIEDCxwFRo-1" style="edgeStyle=orthogonalEdgeStyle;rounded=0;orthogonalLoop=1;jettySize=auto;html=1;entryX=0.981;entryY=0.31;entryDx=0;entryDy=0;entryPerimeter=0;" edge="1" parent="1" source="d_jsHuiSVQQN2BJJEdMS-49" target="d_jsHuiSVQQN2BJJEdMS-30">
          <mxGeometry relative="1" as="geometry" />
        </mxCell>
        <object label="A Policy that Allow to deploy only VM&#39;s&amp;nbsp;&lt;br&gt;&amp;nbsp;VM&#39;s that start with Customerfeedback in there initials&lt;br&gt;Doesn&#39;t allow to deploy VM&#39;s with high preformance hardwere" Policy="Allow to Deploy VM&#39;s named CustomerFeedback" id="d_jsHuiSVQQN2BJJEdMS-49">
          <mxCell style="image;aspect=fixed;html=1;points=[];align=center;fontSize=12;image=img/lib/azure2/management_governance/Policy.svg;" parent="1" vertex="1">
            <mxGeometry x="1390" y="449" width="60" height="64" as="geometry" />
          </mxCell>
        </object>
        <mxCell id="d_jsHuiSVQQN2BJJEdMS-53" style="edgeStyle=orthogonalEdgeStyle;rounded=0;orthogonalLoop=1;jettySize=auto;html=1;" parent="1" source="d_jsHuiSVQQN2BJJEdMS-52" target="d_jsHuiSVQQN2BJJEdMS-30" edge="1">
          <mxGeometry relative="1" as="geometry" />
        </mxCell>
        <mxCell id="d_jsHuiSVQQN2BJJEdMS-52" value="Cost Analysis&lt;br&gt;" style="image;aspect=fixed;html=1;points=[];align=center;fontSize=12;image=img/lib/azure2/general/Cost_Analysis.svg;" parent="1" vertex="1">
          <mxGeometry x="1190" y="510" width="60" height="70" as="geometry" />
        </mxCell>
        <mxCell id="d_jsHuiSVQQN2BJJEdMS-54" value="High Cost Virtual Machine" style="image;aspect=fixed;html=1;points=[];align=center;fontSize=12;image=img/lib/azure2/compute/Virtual_Machine.svg;" parent="1" vertex="1">
          <mxGeometry x="1267.81" y="783.07" width="69" height="64" as="geometry" />
        </mxCell>
        <mxCell id="d_jsHuiSVQQN2BJJEdMS-57" style="edgeStyle=orthogonalEdgeStyle;rounded=0;orthogonalLoop=1;jettySize=auto;html=1;" parent="1" source="d_jsHuiSVQQN2BJJEdMS-56" target="d_jsHuiSVQQN2BJJEdMS-54" edge="1">
          <mxGeometry relative="1" as="geometry" />
        </mxCell>
        <mxCell id="d_jsHuiSVQQN2BJJEdMS-56" value="Alert&lt;br&gt;" style="image;aspect=fixed;html=1;points=[];align=center;fontSize=12;image=img/lib/azure2/management_governance/Alerts.svg;" parent="1" vertex="1">
          <mxGeometry x="1384.7" y="789.5300000000001" width="37" height="30.93" as="geometry" />
        </mxCell>
        <mxCell id="d_jsHuiSVQQN2BJJEdMS-67" style="edgeStyle=orthogonalEdgeStyle;rounded=0;orthogonalLoop=1;jettySize=auto;html=1;" parent="1" source="d_jsHuiSVQQN2BJJEdMS-58" target="d_jsHuiSVQQN2BJJEdMS-21" edge="1">
          <mxGeometry relative="1" as="geometry" />
        </mxCell>
        <mxCell id="d_jsHuiSVQQN2BJJEdMS-58" value="Billing account contributor&#x9;" style="image;aspect=fixed;html=1;points=[];align=center;fontSize=12;image=img/lib/azure2/intune/Azure_AD_Roles_and_Administrators.svg;" parent="1" vertex="1">
          <mxGeometry x="810" y="530" width="64" height="64" as="geometry" />
        </mxCell>
        <mxCell id="d_jsHuiSVQQN2BJJEdMS-64" style="edgeStyle=orthogonalEdgeStyle;rounded=0;orthogonalLoop=1;jettySize=auto;html=1;" parent="1" source="d_jsHuiSVQQN2BJJEdMS-59" target="d_jsHuiSVQQN2BJJEdMS-8" edge="1">
          <mxGeometry relative="1" as="geometry" />
        </mxCell>
        <mxCell id="d_jsHuiSVQQN2BJJEdMS-59" value="Custom AD role IT administrator&amp;nbsp;&lt;br&gt;+ Billing Reader permission" style="image;aspect=fixed;html=1;points=[];align=center;fontSize=12;image=img/lib/azure2/identity/Custom_Azure_AD_Roles.svg;" parent="1" vertex="1">
          <mxGeometry x="660" y="350" width="68" height="68" as="geometry" />
        </mxCell>
        <mxCell id="d_jsHuiSVQQN2BJJEdMS-65" style="edgeStyle=orthogonalEdgeStyle;rounded=0;orthogonalLoop=1;jettySize=auto;html=1;" parent="1" source="d_jsHuiSVQQN2BJJEdMS-60" target="d_jsHuiSVQQN2BJJEdMS-59" edge="1">
          <mxGeometry relative="1" as="geometry" />
        </mxCell>
        <mxCell id="d_jsHuiSVQQN2BJJEdMS-60" value="Give read-only access to billing" style="image;aspect=fixed;html=1;points=[];align=center;fontSize=12;image=img/lib/azure2/general/Cost_Management_and_Billing.svg;" parent="1" vertex="1">
          <mxGeometry x="768" y="290" width="68" height="68" as="geometry" />
        </mxCell>
        <mxCell id="d_jsHuiSVQQN2BJJEdMS-70" style="edgeStyle=orthogonalEdgeStyle;rounded=0;orthogonalLoop=1;jettySize=auto;html=1;" parent="1" source="d_jsHuiSVQQN2BJJEdMS-69" target="d_jsHuiSVQQN2BJJEdMS-19" edge="1">
          <mxGeometry relative="1" as="geometry" />
        </mxCell>
        <mxCell id="d_jsHuiSVQQN2BJJEdMS-69" value="Billing account contributor&#x9;" style="image;aspect=fixed;html=1;points=[];align=center;fontSize=12;image=img/lib/azure2/intune/Azure_AD_Roles_and_Administrators.svg;" parent="1" vertex="1">
          <mxGeometry x="200" y="513" width="64" height="64" as="geometry" />
        </mxCell>
        <mxCell id="d_jsHuiSVQQN2BJJEdMS-76" style="edgeStyle=orthogonalEdgeStyle;rounded=0;orthogonalLoop=1;jettySize=auto;html=1;entryX=0.882;entryY=0.794;entryDx=0;entryDy=0;entryPerimeter=0;" parent="1" source="d_jsHuiSVQQN2BJJEdMS-75" target="d_jsHuiSVQQN2BJJEdMS-44" edge="1">
          <mxGeometry relative="1" as="geometry" />
        </mxCell>
        <mxCell id="d_jsHuiSVQQN2BJJEdMS-75" value="Alert&lt;br&gt;" style="image;aspect=fixed;html=1;points=[];align=center;fontSize=12;image=img/lib/azure2/management_governance/Alerts.svg;" parent="1" vertex="1">
          <mxGeometry x="1235.5900000000001" y="874.07" width="32.22" height="26.93" as="geometry" />
        </mxCell>
        <mxCell id="d_jsHuiSVQQN2BJJEdMS-78" style="edgeStyle=orthogonalEdgeStyle;rounded=0;orthogonalLoop=1;jettySize=auto;html=1;" parent="1" source="d_jsHuiSVQQN2BJJEdMS-77" target="d_jsHuiSVQQN2BJJEdMS-30" edge="1">
          <mxGeometry relative="1" as="geometry">
            <mxPoint x="1044.97" y="461.52941176470586" as="targetPoint" />
          </mxGeometry>
        </mxCell>
        <mxCell id="HOAgcyTk43EPcxEQj3Mo-3" style="edgeStyle=orthogonalEdgeStyle;rounded=0;orthogonalLoop=1;jettySize=auto;html=1;entryX=0.975;entryY=0.235;entryDx=0;entryDy=0;entryPerimeter=0;" parent="1" source="HOAgcyTk43EPcxEQj3Mo-2" target="d_jsHuiSVQQN2BJJEdMS-35" edge="1">
          <mxGeometry relative="1" as="geometry" />
        </mxCell>
        <mxCell id="HOAgcyTk43EPcxEQj3Mo-2" value="Tags for Billing analysis&lt;br&gt;" style="image;aspect=fixed;html=1;points=[];align=center;fontSize=12;image=img/lib/azure2/general/Tags.svg;" parent="1" vertex="1">
          <mxGeometry x="1330" y="628" width="60" height="65" as="geometry" />
        </mxCell>
        <mxCell id="HOAgcyTk43EPcxEQj3Mo-5" style="edgeStyle=orthogonalEdgeStyle;rounded=0;orthogonalLoop=1;jettySize=auto;html=1;" parent="1" source="HOAgcyTk43EPcxEQj3Mo-4" target="d_jsHuiSVQQN2BJJEdMS-30" edge="1">
          <mxGeometry relative="1" as="geometry" />
        </mxCell>
        <mxCell id="HOAgcyTk43EPcxEQj3Mo-4" value="Monitor Billing of Customer Feedback" style="image;aspect=fixed;html=1;points=[];align=center;fontSize=12;image=img/lib/azure2/management_governance/Monitor.svg;" parent="1" vertex="1">
          <mxGeometry x="1160" y="280" width="64" height="64" as="geometry" />
        </mxCell>
        <mxCell id="5Q3nX3RN6myIEDCxwFRo-2" value="&lt;font style=&quot;font-size: 15px;&quot;&gt;-Policies&lt;br&gt;-rabc&lt;br&gt;-budjet&lt;/font&gt;" style="text;strokeColor=none;align=center;fillColor=none;html=1;verticalAlign=middle;whiteSpace=wrap;rounded=0;" vertex="1" parent="1">
          <mxGeometry x="508.47" y="241.5" width="200" height="100" as="geometry" />
        </mxCell>
        <mxCell id="5Q3nX3RN6myIEDCxwFRo-3" value="Top LVL MG" style="text;strokeColor=none;align=center;fillColor=none;html=1;verticalAlign=middle;whiteSpace=wrap;rounded=0;" vertex="1" parent="1">
          <mxGeometry x="440" y="250" width="60" height="30" as="geometry" />
        </mxCell>
        <mxCell id="5Q3nX3RN6myIEDCxwFRo-5" style="edgeStyle=orthogonalEdgeStyle;rounded=0;orthogonalLoop=1;jettySize=auto;html=1;entryX=0.816;entryY=-0.009;entryDx=0;entryDy=0;entryPerimeter=0;" edge="1" parent="1" source="5Q3nX3RN6myIEDCxwFRo-4" target="d_jsHuiSVQQN2BJJEdMS-30">
          <mxGeometry relative="1" as="geometry" />
        </mxCell>
        <mxCell id="5Q3nX3RN6myIEDCxwFRo-4" value="Cost Budget" style="image;aspect=fixed;html=1;points=[];align=center;fontSize=12;image=img/lib/azure2/general/Cost_Budgets.svg;" vertex="1" parent="1">
          <mxGeometry x="1370" y="341.5" width="67" height="68" as="geometry" />
        </mxCell>
        <mxCell id="d_jsHuiSVQQN2BJJEdMS-77" value="Billing account contributor&#x9;" style="image;aspect=fixed;html=1;points=[];align=center;fontSize=12;image=img/lib/azure2/intune/Azure_AD_Roles_and_Administrators.svg;" parent="1" vertex="1">
          <mxGeometry x="1160" y="370" width="64" height="64" as="geometry" />
        </mxCell>
        <mxCell id="5Q3nX3RN6myIEDCxwFRo-6" value="&lt;font style=&quot;font-size: 15px;&quot;&gt;-Policies&lt;br&gt;-rabc&lt;br&gt;-budjet&lt;/font&gt;" style="text;strokeColor=none;align=center;fillColor=none;html=1;verticalAlign=middle;whiteSpace=wrap;rounded=0;" vertex="1" parent="1">
          <mxGeometry x="320" y="502" width="200" height="100" as="geometry" />
        </mxCell>
        <mxCell id="5Q3nX3RN6myIEDCxwFRo-8" value="&lt;font style=&quot;font-size: 15px;&quot;&gt;-Policies&lt;br&gt;-rabc&lt;br&gt;-budjet&lt;/font&gt;" style="text;strokeColor=none;align=center;fillColor=none;html=1;verticalAlign=middle;whiteSpace=wrap;rounded=0;" vertex="1" parent="1">
          <mxGeometry x="568" y="535" width="200" height="100" as="geometry" />
        </mxCell>
        <mxCell id="5Q3nX3RN6myIEDCxwFRo-9" value="&lt;font style=&quot;font-size: 15px;&quot;&gt;-Policies&lt;br&gt;-rabc&lt;br&gt;-budjet&lt;/font&gt;" style="text;strokeColor=none;align=center;fillColor=none;html=1;verticalAlign=middle;whiteSpace=wrap;rounded=0;" vertex="1" parent="1">
          <mxGeometry x="870" y="380" width="200" height="100" as="geometry" />
        </mxCell>
        <mxCell id="5Q3nX3RN6myIEDCxwFRo-10" value="&lt;font style=&quot;font-size: 15px;&quot;&gt;-Policies&lt;br&gt;-rabc&lt;br&gt;&lt;/font&gt;" style="text;strokeColor=none;align=center;fillColor=none;html=1;verticalAlign=middle;whiteSpace=wrap;rounded=0;" vertex="1" parent="1">
          <mxGeometry x="440.00000000000006" y="485" width="200" height="100" as="geometry" />
        </mxCell>
        <mxCell id="5Q3nX3RN6myIEDCxwFRo-11" value="&lt;font style=&quot;font-size: 15px;&quot;&gt;-Policies&lt;br&gt;-rabc&lt;br&gt;-budjet&lt;/font&gt;" style="text;strokeColor=none;align=center;fillColor=none;html=1;verticalAlign=middle;whiteSpace=wrap;rounded=0;" vertex="1" parent="1">
          <mxGeometry x="412" y="725" width="200" height="100" as="geometry" />
        </mxCell>
        <mxCell id="5Q3nX3RN6myIEDCxwFRo-12" value="&lt;font style=&quot;font-size: 15px;&quot;&gt;-Policies&lt;br&gt;-rabc&lt;br&gt;-budjet&lt;/font&gt;" style="text;strokeColor=none;align=center;fillColor=none;html=1;verticalAlign=middle;whiteSpace=wrap;rounded=0;" vertex="1" parent="1">
          <mxGeometry x="280" y="743" width="200" height="100" as="geometry" />
        </mxCell>
        <mxCell id="5Q3nX3RN6myIEDCxwFRo-13" value="&lt;font style=&quot;font-size: 15px;&quot;&gt;-Policies&lt;br&gt;-rabc&lt;br&gt;-budjet&lt;/font&gt;" style="text;strokeColor=none;align=center;fillColor=none;html=1;verticalAlign=middle;whiteSpace=wrap;rounded=0;" vertex="1" parent="1">
          <mxGeometry x="140" y="758" width="198" height="99" as="geometry" />
        </mxCell>
        <mxCell id="5Q3nX3RN6myIEDCxwFRo-14" value="&lt;font style=&quot;font-size: 15px;&quot;&gt;-Policies&lt;br&gt;-rabc&lt;br&gt;-budjet&lt;/font&gt;" style="text;strokeColor=none;align=center;fillColor=none;html=1;verticalAlign=middle;whiteSpace=wrap;rounded=0;" vertex="1" parent="1">
          <mxGeometry x="580" y="826.53" width="198" height="99" as="geometry" />
        </mxCell>
        <mxCell id="5Q3nX3RN6myIEDCxwFRo-15" value="&lt;font style=&quot;font-size: 15px;&quot;&gt;-Policies&lt;br&gt;-rabc&lt;br&gt;-budjet&lt;/font&gt;" style="text;strokeColor=none;align=center;fillColor=none;html=1;verticalAlign=middle;whiteSpace=wrap;rounded=0;" vertex="1" parent="1">
          <mxGeometry x="702" y="744" width="198" height="99" as="geometry" />
        </mxCell>
        <mxCell id="5Q3nX3RN6myIEDCxwFRo-16" value="&lt;font style=&quot;font-size: 15px;&quot;&gt;-Policies&lt;br&gt;-rabc&lt;br&gt;-budjet&lt;/font&gt;" style="text;strokeColor=none;align=center;fillColor=none;html=1;verticalAlign=middle;whiteSpace=wrap;rounded=0;" vertex="1" parent="1">
          <mxGeometry x="1079" y="700" width="90" height="87.5" as="geometry" />
        </mxCell>
        <mxCell id="5Q3nX3RN6myIEDCxwFRo-28" style="edgeStyle=orthogonalEdgeStyle;rounded=0;orthogonalLoop=1;jettySize=auto;html=1;" edge="1" parent="1" source="5Q3nX3RN6myIEDCxwFRo-22" target="5Q3nX3RN6myIEDCxwFRo-2">
          <mxGeometry relative="1" as="geometry" />
        </mxCell>
        <mxCell id="5Q3nX3RN6myIEDCxwFRo-22" value="" style="whiteSpace=wrap;html=1;aspect=fixed;fillColor=#dae8fc;strokeColor=#6c8ebf;movable=1;resizable=1;rotatable=1;deletable=1;editable=1;locked=0;connectable=1;" vertex="1" parent="1">
          <mxGeometry x="49" y="230" width="250" height="250" as="geometry" />
        </mxCell>
        <mxCell id="5Q3nX3RN6myIEDCxwFRo-23" value="Cost Budget&lt;br&gt;" style="image;aspect=fixed;html=1;points=[];align=center;fontSize=12;image=img/lib/azure2/general/Cost_Budgets.svg;movable=1;resizable=1;rotatable=1;deletable=1;editable=1;locked=0;connectable=1;" vertex="1" parent="1">
          <mxGeometry x="230" y="246" width="45.32" height="46" as="geometry" />
        </mxCell>
        <mxCell id="5Q3nX3RN6myIEDCxwFRo-24" value="Cost Management" style="image;aspect=fixed;html=1;points=[];align=center;fontSize=12;image=img/lib/azure2/general/Cost_Management.svg;movable=1;resizable=1;rotatable=1;deletable=1;editable=1;locked=0;connectable=1;" vertex="1" parent="1">
          <mxGeometry x="87.80000000000001" y="246" width="40.2" height="36" as="geometry" />
        </mxCell>
        <mxCell id="5Q3nX3RN6myIEDCxwFRo-25" value="Cost analysis&lt;br&gt;" style="image;aspect=fixed;html=1;points=[];align=center;fontSize=12;image=img/lib/azure2/general/Cost_Analysis.svg;movable=1;resizable=1;rotatable=1;deletable=1;editable=1;locked=0;connectable=1;" vertex="1" parent="1">
          <mxGeometry x="68" y="386" width="60" height="70" as="geometry" />
        </mxCell>
        <mxCell id="5Q3nX3RN6myIEDCxwFRo-26" value="Cost Management&lt;br&gt;&amp;nbsp;and Billing" style="image;aspect=fixed;html=1;points=[];align=center;fontSize=12;image=img/lib/azure2/general/Cost_Management_and_Billing.svg;movable=1;resizable=1;rotatable=1;deletable=1;editable=1;locked=0;connectable=1;" vertex="1" parent="1">
          <mxGeometry x="157.10000000000002" y="316" width="40" height="40" as="geometry" />
        </mxCell>
        <mxCell id="5Q3nX3RN6myIEDCxwFRo-27" value="Monitor" style="image;aspect=fixed;html=1;points=[];align=center;fontSize=12;image=img/lib/azure2/management_governance/Monitor.svg;" vertex="1" parent="1">
          <mxGeometry x="230" y="410.67999999999995" width="45.32" height="45.32" as="geometry" />
        </mxCell>
      </root>
    </mxGraphModel>
  </diagram>
</mxfile>
